#N canvas 2017 38 1272 843 10;
#X obj 76 187 osc~;
#X obj 111 188 osc~;
#X obj 148 188 osc~;
#X floatatom 130 103 5 0 0 0 - - - 0;
#X floatatom 164 103 5 0 0 0 - - - 0;
#X floatatom 199 103 5 0 0 0 - - - 0;
#X obj 77 158 *;
#X obj 111 157 *;
#X obj 142 156 *;
#X obj 77 217 *~;
#X obj 111 215 *~;
#X obj 148 216 *~;
#X obj 35 127 bng 15 250 50 0 empty empty empty 17 7 0 10 #fcfcfc #000000
#000000;
#X msg 35 158 -0.25;
#X obj 130 44 inlet;
#X obj 35 43 inlet;
#X text 31 26 freq;
#X text 123 24 harmonics;
#X obj 65 247 outlet~;
#X obj 120 249 outlet~;
#X obj 174 249 outlet~;
#X obj 311 37 inlet;
#X text 307 17 amplitues;
#X floatatom 311 176 5 0 0 0 - - - 0;
#X floatatom 345 175 5 0 0 0 - - - 0;
#X floatatom 380 175 5 0 0 0 - - - 0;
#X obj 130 76 unpack 1 1 1 1 1;
#X obj 189 186 osc~;
#X obj 183 158 *;
#X obj 188 216 *~;
#X obj 225 248 outlet~;
#X obj 225 183 osc~;
#X obj 229 161 *;
#X obj 230 217 *~;
#X obj 277 245 outlet~;
#X floatatom 416 175 5 0 0 0 - - - 0;
#X floatatom 454 175 5 0 0 0 - - - 0;
#X obj 311 149 unpack 1 1 1 1 1;
#X floatatom 274 102 5 0 0 0 - - - 0;
#X floatatom 237 103 5 0 0 0 - - - 0;
#X connect 0 0 9 0;
#X connect 1 0 10 0;
#X connect 2 0 11 0;
#X connect 3 0 6 1;
#X connect 4 0 7 1;
#X connect 5 0 8 1;
#X connect 6 0 0 0;
#X connect 7 0 1 0;
#X connect 8 0 2 0;
#X connect 9 0 18 0;
#X connect 10 0 19 0;
#X connect 11 0 20 0;
#X connect 12 0 13 0;
#X connect 13 0 0 1;
#X connect 13 0 1 1;
#X connect 13 0 2 1;
#X connect 13 0 27 1;
#X connect 13 0 31 1;
#X connect 14 0 26 0;
#X connect 15 0 6 0;
#X connect 15 0 7 0;
#X connect 15 0 12 0;
#X connect 15 0 8 0;
#X connect 15 0 28 0;
#X connect 15 0 32 0;
#X connect 21 0 37 0;
#X connect 23 0 9 1;
#X connect 24 0 10 1;
#X connect 25 0 11 1;
#X connect 26 0 3 0;
#X connect 26 1 4 0;
#X connect 26 2 5 0;
#X connect 26 3 39 0;
#X connect 26 4 38 0;
#X connect 27 0 29 0;
#X connect 28 0 27 0;
#X connect 29 0 30 0;
#X connect 31 0 33 0;
#X connect 32 0 31 0;
#X connect 33 0 34 0;
#X connect 35 0 29 0;
#X connect 36 0 33 0;
#X connect 37 0 23 0;
#X connect 37 1 24 0;
#X connect 37 2 25 0;
#X connect 37 3 35 0;
#X connect 37 4 36 0;
#X connect 38 0 32 1;
#X connect 39 0 28 1;
