#N canvas 2523 50 959 477 12;
#X obj 73 280 *~;
#X obj 222 274 *~;
#X obj 358 274 *~;
#X obj 346 166 bng 15 250 50 0 empty empty empty 17 7 0 10 #fcfcfc
#000000 #000000;
#X obj 55 132 t f b b;
#X obj 55 196 myAddSynth;
#X obj 492 276 *~;
#X obj 630 280 *~;
#X obj 55 95 inlet;
#X obj 68 385 outlet~;
#X obj 68 332 +~;
#X obj 67 357 *~ 0.5;
#X floatatom 137 332 5 0 0 0 - - - 0;
#X msg 74 161 1 2 3 4 5;
#X obj 212 213 myASR 200 600 200;
#X obj 354 210 myASR 200 600 200;
#X obj 490 210 myASR 200 600 200;
#X obj 624 211 myASR 200 600 200;
#X obj 758 210 myASR 200 600 200;
#X msg 156 161 0.73 0.45 0.51 0.49 0.43;
#X connect 0 0 10 0;
#X connect 1 0 10 0;
#X connect 2 0 10 0;
#X connect 3 0 14 0;
#X connect 3 0 15 0;
#X connect 3 0 16 0;
#X connect 3 0 17 0;
#X connect 3 0 18 0;
#X connect 4 0 5 0;
#X connect 4 1 13 0;
#X connect 4 2 19 0;
#X connect 5 0 0 0;
#X connect 5 1 1 0;
#X connect 5 2 2 0;
#X connect 5 3 6 0;
#X connect 5 4 7 0;
#X connect 6 0 10 0;
#X connect 7 0 10 0;
#X connect 8 0 4 0;
#X connect 8 0 3 0;
#X connect 10 0 11 0;
#X connect 11 0 9 0;
#X connect 12 0 11 1;
#X connect 13 0 5 1;
#X connect 14 0 0 1;
#X connect 15 0 1 1;
#X connect 16 0 2 1;
#X connect 17 0 6 1;
#X connect 18 0 7 1;
#X connect 19 0 5 2;
